<svg xmlns="http://www.w3.org/2000/svg" viewBox="-45 -45 250 250">
  <rect x="-45" y="-45" width="250" height="250" rx="28" fill="#09090b"/>
  <path fill="#db9d10" d="M100.53,80l-13.1-53.76c-.52-1.78-1.99-2.67-4.39-2.67h-32.18c-3.56,0-4.97,1.52-4.24,4.55l12.4,50.23c.31.94.05,1.83-.78,2.67L4.71,131.88c-.94.84-1.62,1.81-2.04,2.9-.42,1.1.47,1.65,2.67,1.65h31.86c2.3,0,4.45-.99,6.44-2.98l25.27-26.68,4.08,26.68c.31,1.99,1.62,2.98,3.92,2.98h31.86c3.66,0,5.13-1.52,4.39-4.55l-12.64-51.88Z"/>
  <path fill="#0088cc" d="M101.87,41l13.97-14.44c1.88-1.99,3.98-2.98,6.28-2.98h32.18c2.41,0,3.43.47,3.06,1.41-.37.94-1.13,1.99-2.28,3.14l-44.42,41.12c-1.36,1.36-2.57,2.04-3.61,2.04-.94,0-1.57-.68-1.88-2.04l-5.49-22.13c-.52-2.09.21-4.13,2.2-6.12Z"/>
</svg>
