<?xml version="1.0" encoding="UTF-8"?>
<svg id="Livello_1" data-name="Livello 1" xmlns="http://www.w3.org/2000/svg" viewBox="0 0 2752 1536">
  <defs>
    <style>
      .cls-1 {
        fill: #fff;
      }

      .cls-2 {
        fill: #db9d10;
      }

      .cls-3 {
        fill: #08c;
      }
    </style>
  </defs>
  <path class="cls-1" d="M508.42,656.17c-11.34,0-14.83-5.66-10.46-17l35.97-88.94c5.23-11.77,13.29-17.66,24.2-17.66h410.71c12.2,0,15.7,5.89,10.46,17.66l-35.97,88.94c-4.36,11.34-12.43,17-24.2,17h-410.71ZM753.67,684.29c11.33,0,14.82,5.67,10.46,17l-115.1,284.49c-5.23,11.77-13.3,17.66-24.2,17.66h-102.68c-12.21,0-15.7-5.89-10.46-17.66l115.1-284.49c4.35-11.33,12.43-17,24.2-17h102.68Z"/>
  <path class="cls-1" d="M1201.66,879.83c11.77,0,15.47,5.67,11.12,17l-35.97,88.94c-5.23,11.77-13.52,17.66-24.85,17.66h-317.19c-11.77,0-15.04-5.89-9.81-17.66l175.93-435.56c5.23-11.77,13.29-17.66,24.2-17.66h103.33c11.77,0,15.04,5.89,9.81,17.66l-130.8,323.08c-1.31,4.36,0,6.54,3.92,6.54h190.31Z"/>
  <path class="cls-1" d="M1627.41,879.83c11.33,0,14.82,5.67,10.46,17l-35.97,88.94c-5.23,11.77-13.3,17.66-24.2,17.66h-360.35c-11.77,0-15.04-5.89-9.81-17.66l175.93-435.56c5.23-11.77,13.29-17.66,24.2-17.66h360.35c11.77,0,15.04,5.89,9.81,17.66l-35.97,88.94c-4.36,11.34-12.21,17-23.54,17h-234.79c-4.8,0-7.85,2.19-9.16,6.54l-85.67,210.59c-1.31,4.36,0,6.54,3.92,6.54h234.79ZM1476.33,732.68c5.23-11.77,13.29-17.66,24.2-17.66h164.81c11.77,0,15.04,5.89,9.81,17.66l-28.12,70.63c-5.23,11.77-13.3,17.66-24.2,17.66h-164.81c-11.77,0-15.04-5.89-9.81-17.66l28.12-70.63Z"/>
  <path class="cls-2" d="M2018.79,768.33l-54.58-223.99c-2.19-7.41-8.29-11.12-18.31-11.12h-134.07c-14.83,0-20.71,6.33-17.66,18.97l51.67,209.28c1.31,3.92.21,7.63-3.27,11.12l-223.01,211.9c-3.92,3.49-6.75,7.52-8.5,12.1-1.74,4.58,1.96,6.87,11.12,6.87h132.76c9.58,0,18.53-4.14,26.81-12.43l105.29-111.18,17,111.18c1.31,8.29,6.75,12.43,16.35,12.43h132.76c15.26,0,21.36-6.32,18.31-18.97l-52.67-216.15Z"/>
  <path class="cls-3" d="M2024.37,605.81l58.21-60.17c7.85-8.28,16.57-12.43,26.16-12.43h134.07c10.02,0,14.28,1.96,12.75,5.89-1.53,3.92-4.69,8.29-9.48,13.08l-185.08,171.35c-5.67,5.67-10.69,8.5-15.04,8.5-3.92,0-6.54-2.83-7.85-8.5l-22.89-92.21c-2.19-8.72.87-17.22,9.16-25.51Z"/>
</svg>